<svg width="66" height="64" fill="none" xmlns="http://www.w3.org/2000/svg"><path fill-rule="evenodd" clip-rule="evenodd" d="M34.802 21.181 47.055 2.998A6.311 6.311 0 0 1 52.464 0a6.258 6.258 0 0 1 6.257 6.257v28.272a16.483 16.483 0 0 0-9.125-2.472V12.774c0-.456-.456-.652-.782-.391L36.757 22.876c-1.173 1.042-2.802-.457-1.955-1.695Zm6.193 15.423 7.754 9.278c.26.326.847.13.847-.326v-11.95a14.944 14.944 0 0 1 9.124 2.783v16.01a6.258 6.258 0 0 1-6.256 6.256h-1.303c-1.825 0-3.585-.782-4.758-2.215L35.797 43.75a15.046 15.046 0 0 1 5.198-7.146ZM40 35.414 12.252 2.216C11.08.782 9.385 0 7.495 0H6.19C2.802 0 0 2.802 0 6.257v46.142a6.258 6.258 0 0 0 6.257 6.256 6.284 6.284 0 0 0 5.344-2.998l12.252-18.183c.848-1.238-.782-2.737-1.955-1.694L9.841 46.208c-.326.26-.782.065-.782-.392V13.1c0-.457.587-.652.847-.326l24.75 29.61A16.612 16.612 0 0 1 40 35.414Z" fill="#fff"/><path d="M50.004 63.625c8.291 0 15.012-6.721 15.012-15.012S58.296 33.6 50.004 33.6c-8.29 0-15.012 6.72-15.012 15.012 0 8.29 6.721 15.012 15.012 15.012Z" fill="#627EEA"/><path d="M50.472 37.352v8.322l7.034 3.144-7.034-11.466Z" fill="#fff" fill-opacity=".602"/><path d="m50.472 37.352-7.034 11.466 7.034-3.144v-8.322Z" fill="#fff"/><path d="M50.472 54.21v5.655l7.038-9.738-7.038 4.083Z" fill="#fff" fill-opacity=".602"/><path d="M50.472 59.865V54.21l-7.034-4.083 7.034 9.738Z" fill="#fff"/><path d="m50.472 52.901 7.034-4.083-7.034-3.144v7.227Z" fill="#fff" fill-opacity=".2"/><path d="m43.438 48.818 7.034 4.083v-7.227l-7.034 3.144Z" fill="#fff" fill-opacity=".602"/></svg>