<svg width="218" height="51" fill="none" xmlns="http://www.w3.org/2000/svg"><path d="M.68 50h20.4v-.56c-9.68 0-9.76-4.56-9.76-29.36v-12L45.96 50.4l.48-.08V30.48c0-24.8.08-29.36 9.76-29.36V.56H35.8v.56c9.68 0 9.84 4.56 9.84 29.36v6.72L15.8.56H.92v.56c8 0 9.6 3.84 9.6 11.84v7.12c0 24.8-.16 29.36-9.84 29.36V50Zm58.769 0h41.52l1.52-15.76-.48-.08c-2.16 8.48-5.2 15.2-20.24 15.2h-6.72V25.68h1.6c10.56 0 14.24 2.4 15.52 10.4h.48V14.56h-.48c-1.28 8.08-4.96 10.48-15.52 10.48h-1.6V1.2h5.84c14.32 0 18.08 4.88 20.16 14.16l.4-.08-.96-14.72h-41.04v.56c6.88 0 7.6 1.92 7.6 7.2v33.92c0 5.28-.72 7.2-7.6 7.2V50Zm60.647 0h24.08v-.56c-6.88 0-8-1.84-8-7.36V1.2h.48c13.44 0 15.68 7.76 18 16.4l.48-.08-1.44-16.96h-43.12l-1.44 16.96.48.08c2.32-8.64 4.56-16.4 18-16.4h.48v40.88c0 5.52-1.12 7.36-8 7.36V50Zm39.978 0h23.2v-.56c-6.88 0-7.6-1.92-7.6-7.2V25.2h25.92v17.04c0 5.28-.72 7.2-7.6 7.2V50h23.2v-.56c-6.88 0-7.6-1.92-7.6-7.2V8.32c0-5.28.72-7.2 7.6-7.2V.56h-23.2v.56c6.88 0 7.6 1.92 7.6 7.2v16.16h-25.92V8.32c0-5.28.72-7.2 7.6-7.2V.56h-23.2v.56c6.88 0 7.6 1.92 7.6 7.2v33.92c0 5.28-.72 7.2-7.6 7.2V50Z" fill="url('#paint0_linear_4_1366')"/><defs><linearGradient id="paint0_linear_4_1366" x1="-1" y1="26" x2="220" y2="26" gradientUnits="userSpaceOnUse"><stop stop-color="#fff"/><stop offset="1" stop-color="#627EEA"/></linearGradient></defs></svg>