<svg width="218" height="51" viewBox="0 0 218 51" fill="none" xmlns="http://www.w3.org/2000/svg">
<path d="M0.68 50H21.08V49.44C11.4 49.44 11.32 44.88 11.32 20.08V8.08L45.96 50.4L46.44 50.32V30.48C46.44 5.68 46.52 1.12 56.2 1.12V0.559998H35.8V1.12C45.48 1.12 45.64 5.68 45.64 30.48V37.2L15.8 0.559998H0.92V1.12C8.92 1.12 10.52 4.96 10.52 12.96V20.08C10.52 44.88 10.36 49.44 0.68 49.44V50ZM59.4488 50H100.969L102.489 34.24L102.009 34.16C99.8488 42.64 96.8088 49.36 81.7688 49.36H75.0488V25.68H76.6488C87.2088 25.68 90.8888 28.08 92.1688 36.08H92.6488V14.56H92.1688C90.8888 22.64 87.2088 25.04 76.6488 25.04H75.0488V1.2H80.8888C95.2088 1.2 98.9688 6.08 101.049 15.36L101.449 15.28L100.489 0.559998H59.4488V1.12C66.3288 1.12 67.0488 3.04 67.0488 8.32V42.24C67.0488 47.52 66.3288 49.44 59.4488 49.44V50ZM120.096 50H144.176V49.44C137.296 49.44 136.176 47.6 136.176 42.08V1.2H136.656C150.096 1.2 152.336 8.96 154.656 17.6L155.136 17.52L153.696 0.559998H110.576L109.136 17.52L109.616 17.6C111.936 8.96 114.176 1.2 127.616 1.2H128.096V42.08C128.096 47.6 126.976 49.44 120.096 49.44V50ZM160.074 50H183.274V49.44C176.394 49.44 175.674 47.52 175.674 42.24V25.2H201.594V42.24C201.594 47.52 200.874 49.44 193.994 49.44V50H217.194V49.44C210.314 49.44 209.594 47.52 209.594 42.24V8.32C209.594 3.04 210.314 1.12 217.194 1.12V0.559998H193.994V1.12C200.874 1.12 201.594 3.04 201.594 8.32V24.48H175.674V8.32C175.674 3.04 176.394 1.12 183.274 1.12V0.559998H160.074V1.12C166.954 1.12 167.674 3.04 167.674 8.32V42.24C167.674 47.52 166.954 49.44 160.074 49.44V50Z" fill="url(#paint0_linear_204_961)"/>
<defs>
<linearGradient id="paint0_linear_204_961" x1="-0.999998" y1="26" x2="220" y2="26" gradientUnits="userSpaceOnUse">
<stop stop-color="white"/>
<stop offset="1" stop-color="#F6851B"/>
</linearGradient>
</defs>
</svg>
