<svg width="66" height="64" viewBox="0 0 66 64" fill="none" xmlns="http://www.w3.org/2000/svg">
<path fill-rule="evenodd" clip-rule="evenodd" d="M34.8022 21.1811L47.0547 2.99794C48.2278 1.10794 50.2482 0 52.464 0C55.9182 0 58.7206 2.80243 58.7206 6.25658V34.529C56.1889 32.9588 53.2025 32.0522 50.0044 32.0522C49.868 32.0522 49.732 32.0539 49.5964 32.0572V12.7739C49.5964 12.3176 49.1402 12.1221 48.8144 12.3828L36.7574 22.8756C35.5843 23.9184 33.955 22.4194 34.8022 21.1811ZM40.9946 36.6038L48.7492 45.8816C49.0099 46.2075 49.5964 46.0119 49.5964 45.5557V33.606C49.732 33.6024 49.868 33.6006 50.0044 33.6006C53.2545 33.6006 56.2633 34.6334 58.7206 36.3887V52.3989C58.7206 55.853 55.9182 58.6554 52.464 58.6554H51.1606C49.3357 58.6554 47.5761 57.8734 46.403 56.4396L35.7972 43.7506C36.781 40.8753 38.6129 38.3936 40.9946 36.6038ZM40.0004 35.4143L12.2525 2.21587C11.0794 0.782073 9.38487 0 7.49486 0H6.19141C2.80243 0 0 2.80243 0 6.25658V52.3989C0 55.853 2.80243 58.6554 6.25658 58.6554C8.40728 58.6554 10.4276 57.5475 11.6007 55.6575L23.8532 37.4743C24.7005 36.236 23.0711 34.7371 21.898 35.7798L9.84108 46.2075C9.51522 46.4681 9.05901 46.2726 9.05901 45.8164V13.0997C9.05901 12.6435 9.64556 12.448 9.90625 12.7739L34.6552 42.3842C35.784 39.6051 37.6457 37.2019 40.0004 35.4143Z" fill="white"/>
<path d="M50.0042 63.6246C58.2951 63.6246 65.0162 56.9035 65.0162 48.6126C65.0162 40.3217 58.2951 33.6006 50.0042 33.6006C41.7133 33.6006 34.9922 40.3217 34.9922 48.6126C34.9922 56.9035 41.7133 63.6246 50.0042 63.6246Z" fill="#627EEA"/>
<path d="M50.4717 37.3516V45.6743L57.5057 48.8179L50.4717 37.3516Z" fill="white" fill-opacity="0.602"/>
<path d="M50.4719 37.3516L43.4379 48.8179L50.4719 45.6743V37.3516Z" fill="white"/>
<path d="M50.4717 54.2102V59.8653L57.5098 50.1268L50.4717 54.2102Z" fill="white" fill-opacity="0.602"/>
<path d="M50.4719 59.8653V54.2102L43.4379 50.1268L50.4719 59.8653Z" fill="white"/>
<path d="M50.4717 52.9012L57.5057 48.8178L50.4717 45.6743V52.9012Z" fill="white" fill-opacity="0.2"/>
<path d="M43.4379 48.8178L50.4719 52.9012V45.6743L43.4379 48.8178Z" fill="white" fill-opacity="0.602"/>
</svg>
